# xmcd
#
# Track frame offsets:
#	150
#	14235
#	28882
#	46901
#	63617
#	79079
#	94714
#	111792
#	130495
#	149305
#	168369
#	175005
#
# Disc length: 2607 seconds
#
# Revision: 1
# Processed by: cddbd v1.5.2PL0 Copyright (c) Steve Scherf et al.
# Submitted via: audiograbber 1.83.01
#
DISCID=a60a2d0c
DTITLE=Erja Lyytinen - Dreamland Blues
DYEAR=2006
DGENRE=Blues
TTITLE0=Skinny Girl 
TTITLE1=Why A Woman Plays The Blues
TTITLE2=Best For You
TTITLE3=Hurts Me Too
TTITLE4=Mississippi Callin
TTITLE5=I Need Love
TTITLE6=Good Lovin´ Man
TTITLE7=Dreamland Blues
TTITLE8=Nasty Weather 
TTITLE9=Join Everyone
TTITLE10=Voyager´s Rest
TTITLE11=Lady
EXTD=
EXTT0=
EXTT1=
EXTT2=
EXTT3=
EXTT4=
EXTT5=
EXTT6=
EXTT7=
EXTT8=
EXTT9=
EXTT10=
EXTT11=
PLAYORDER=
